<?xml version="1.0" standalone="no"?>
<!DOCTYPE svg PUBLIC "-//W3C//DTD SVG 20010904//EN"
 "http://www.w3.org/TR/2001/REC-SVG-20010904/DTD/svg10.dtd">
<svg version="1.0" xmlns="http://www.w3.org/2000/svg"
 width="512.000000pt" height="512.000000pt" viewBox="0 0 512.000000 512.000000"
 preserveAspectRatio="xMidYMid meet">

<g transform="translate(0.000000,512.000000) scale(0.100000,-0.100000)"
fill="#000000" stroke="none">
<path d="M2451 3744 c-39 -33 -70 -94 -100 -197 -34 -117 -21 -111 28 12 47
121 62 141 87 120 37 -31 49 -72 49 -179 0 -98 -2 -110 -33 -174 -18 -38 -53
-99 -79 -135 -51 -71 -245 -270 -358 -366 -305 -260 -350 -348 -210 -418 36
-17 150 -34 302 -43 90 -5 113 -10 118 -23 4 -9 9 -239 12 -511 6 -440 8 -490
20 -455 23 65 35 328 31 667 l-3 317 29 5 c16 3 49 6 75 6 67 1 223 24 248 38
35 19 63 62 63 97 0 43 -53 121 -108 160 -58 40 -125 42 -152 5 -11 -14 -28
-37 -40 -52 l-21 -27 38 -10 c85 -23 163 -111 121 -137 -16 -10 -165 -34 -215
-34 l-41 0 -7 73 c-3 39 -10 151 -15 247 l-9 175 98 100 c159 164 239 307 257
459 14 118 -56 277 -132 300 -15 5 -31 -1 -53 -20z m-191 -1006 c0 -79 -3
-187 -7 -242 l-6 -98 -111 6 c-267 16 -354 47 -312 111 24 36 409 363 429 365
4 0 7 -64 7 -142z"/>
</g>
</svg>
